<svg xmlns="http://www.w3.org/2000/svg" width="450" height="418" viewBox="0 0 450 418" fill="none">
  <g filter="url(#filter0_f_74_8049)">
    <path d="M440 131.823L408.469 165.667C407.787 166.402 406.961 166.988 406.043 167.39C405.125 167.791 404.133 167.999 403.131 168H253.663C252.951 168 252.253 167.791 251.657 167.4C251.061 167.009 250.591 166.452 250.306 165.798C250.021 165.144 249.932 164.421 250.052 163.718C250.171 163.014 250.492 162.36 250.977 161.837L282.472 127.993C283.154 127.258 283.979 126.672 284.898 126.27C285.816 125.869 286.808 125.661 287.81 125.66H437.277C437.996 125.645 438.704 125.844 439.311 126.23C439.918 126.617 440.398 127.175 440.688 127.834C440.98 128.493 441.069 129.223 440.946 129.933C440.824 130.643 440.494 131.3 440 131.823ZM408.469 63.6548C407.785 62.9231 406.958 62.3388 406.04 61.9375C405.123 61.5364 404.133 61.3267 403.131 61.3215H253.663C252.951 61.3219 252.253 61.5303 251.657 61.9215C251.061 62.3125 250.591 62.8691 250.306 63.5232C250.021 64.1772 249.932 64.9002 250.052 65.6038C250.171 66.3074 250.492 66.9611 250.977 67.4846L282.472 101.346C283.156 102.078 283.983 102.662 284.9 103.063C285.818 103.465 286.808 103.674 287.81 103.679H437.277C437.989 103.676 438.683 103.465 439.277 103.072C439.872 102.68 440.338 102.123 440.621 101.47C440.904 100.816 440.991 100.095 440.87 99.3926C440.751 98.6906 440.43 98.0387 439.946 97.5164L408.469 63.6548ZM253.663 39.3408H403.131C404.133 39.3399 405.125 39.1321 406.043 38.7306C406.961 38.3293 407.787 37.7425 408.469 37.0074L440 3.16388C440.494 2.64112 440.824 1.98347 440.946 1.27366C441.069 0.563855 440.98 -0.166402 440.688 -0.825212C440.398 -1.48402 439.918 -2.04195 439.311 -2.42879C438.704 -2.81562 437.996 -3.01409 437.277 -2.99922H287.81C286.808 -2.99817 285.816 -2.79043 284.898 -2.38896C283.979 -1.98749 283.154 -1.40091 282.472 -0.665791L250.977 33.1777C250.492 33.7012 250.171 34.355 250.052 35.0586C249.932 35.7621 250.021 36.4851 250.306 37.1392C250.591 37.7933 251.061 38.3499 251.657 38.7409C252.253 39.1321 252.951 39.3405 253.663 39.3408Z" fill="url(#paint0_linear_74_8049)"/>
  </g>
  <defs>
    <filter id="filter0_f_74_8049" x="0" y="-253" width="691" height="671" filterUnits="userSpaceOnUse" color-interpolation-filters="sRGB">
      <feFlood flood-opacity="0" result="BackgroundImageFix"/>
      <feBlend mode="normal" in="SourceGraphic" in2="BackgroundImageFix" result="shape"/>
      <feGaussianBlur stdDeviation="125" result="effect1_foregroundBlur_74_8049"/>
    </filter>
    <linearGradient id="paint0_linear_74_8049" x1="250" y1="82.5" x2="408.811" y2="9.71042" gradientUnits="userSpaceOnUse">
      <stop offset="0.08" stop-color="#9945FF"/>
      <stop offset="0.3" stop-color="#8752F3"/>
      <stop offset="0.5" stop-color="#5497D5"/>
      <stop offset="0.6" stop-color="#43B4CA"/>
      <stop offset="0.72" stop-color="#28E0B9"/>
      <stop offset="1" stop-color="#19FB9B"/>
    </linearGradient>
  </defs>
</svg>