<svg width="146" height="18" viewBox="0 0 146 18" fill="none" xmlns="http://www.w3.org/2000/svg">
<path d="M8.10343 0.816531C8.47027 0.0733633 9.53001 0.0733631 9.89684 0.816531L11.8577 4.78899C12.0032 5.08384 12.2844 5.2883 12.6098 5.33585L16.9964 5.97702C17.8163 6.09686 18.1431 7.1047 17.5495 7.68286L14.3769 10.7729C14.1411 11.0026 14.0334 11.3338 14.0891 11.6583L14.8376 16.0225C14.9777 16.8395 14.1201 17.4625 13.3865 17.0766L9.46559 15.0147C9.17421 14.8614 8.82607 14.8614 8.53469 15.0147L4.61377 17.0766C3.88014 17.4625 3.02259 16.8395 3.16271 16.0225L3.91122 11.6583C3.96689 11.3338 3.85922 11.0026 3.62335 10.7729L0.450816 7.68286C-0.142777 7.1047 0.184007 6.09686 1.00392 5.97702L5.39051 5.33585C5.71586 5.2883 5.99704 5.08384 6.14258 4.78899L8.10343 0.816531Z" fill="#14F195"/>
<path d="M40.1034 0.816531C40.4703 0.0733633 41.53 0.0733631 41.8968 0.816531L43.8577 4.78899C44.0032 5.08384 44.2844 5.2883 44.6098 5.33585L48.9964 5.97702C49.8163 6.09686 50.1431 7.1047 49.5495 7.68286L46.3769 10.7729C46.1411 11.0026 46.0334 11.3338 46.0891 11.6583L46.8376 16.0225C46.9777 16.8395 46.1201 17.4625 45.3865 17.0766L41.4656 15.0147C41.1742 14.8614 40.8261 14.8614 40.5347 15.0147L36.6138 17.0766C35.8801 17.4625 35.0226 16.8395 35.1627 16.0225L35.9112 11.6583C35.9669 11.3338 35.8592 11.0026 35.6233 10.7729L32.4508 7.68286C31.8572 7.1047 32.184 6.09686 33.0039 5.97702L37.3905 5.33585C37.7159 5.2883 37.997 5.08384 38.1426 4.78899L40.1034 0.816531Z" fill="#14F195"/>
<path d="M72.1034 0.816531C72.4703 0.0733633 73.53 0.0733631 73.8968 0.816531L75.8577 4.78899C76.0032 5.08384 76.2844 5.2883 76.6098 5.33585L80.9964 5.97702C81.8163 6.09686 82.1431 7.1047 81.5495 7.68286L78.3769 10.7729C78.1411 11.0026 78.0334 11.3338 78.0891 11.6583L78.8376 16.0225C78.9777 16.8395 78.1201 17.4625 77.3865 17.0766L73.4656 15.0147C73.1742 14.8614 72.8261 14.8614 72.5347 15.0147L68.6138 17.0766C67.8801 17.4625 67.0226 16.8395 67.1627 16.0225L67.9112 11.6583C67.9669 11.3338 67.8592 11.0026 67.6234 10.7729L64.4508 7.68286C63.8572 7.1047 64.184 6.09686 65.0039 5.97702L69.3905 5.33585C69.7159 5.2883 69.997 5.08384 70.1426 4.78899L72.1034 0.816531Z" fill="#14F195"/>
<path d="M104.103 0.816531C104.47 0.0733633 105.53 0.0733631 105.897 0.816531L107.858 4.78899C108.003 5.08384 108.284 5.2883 108.61 5.33585L112.996 5.97702C113.816 6.09686 114.143 7.1047 113.549 7.68286L110.377 10.7729C110.141 11.0026 110.033 11.3338 110.089 11.6583L110.838 16.0225C110.978 16.8395 110.12 17.4625 109.387 17.0766L105.466 15.0147C105.174 14.8614 104.826 14.8614 104.535 15.0147L100.614 17.0766C99.8801 17.4625 99.0226 16.8395 99.1627 16.0225L99.9112 11.6583C99.9669 11.3338 99.8592 11.0026 99.6234 10.7729L96.4508 7.68286C95.8572 7.1047 96.184 6.09686 97.0039 5.97702L101.391 5.33585C101.716 5.2883 101.997 5.08384 102.143 4.78899L104.103 0.816531Z" fill="#14F195"/>
<path d="M136.103 0.816531C136.47 0.0733633 137.53 0.0733631 137.897 0.816531L139.858 4.78899C140.003 5.08384 140.284 5.2883 140.61 5.33585L144.996 5.97702C145.816 6.09686 146.143 7.1047 145.549 7.68286L142.377 10.7729C142.141 11.0026 142.033 11.3338 142.089 11.6583L142.838 16.0225C142.978 16.8395 142.12 17.4625 141.387 17.0766L137.466 15.0147C137.174 14.8614 136.826 14.8614 136.535 15.0147L132.614 17.0766C131.88 17.4625 131.023 16.8395 131.163 16.0225L131.911 11.6583C131.967 11.3338 131.859 11.0026 131.623 10.7729L128.451 7.68286C127.857 7.1047 128.184 6.09686 129.004 5.97702L133.391 5.33585C133.716 5.2883 133.997 5.08384 134.143 4.78899L136.103 0.816531Z" fill="#14F195"/>
</svg>
