<svg width="80" height="88" viewBox="0 0 80 88" fill="none" xmlns="http://www.w3.org/2000/svg">
<g filter="url(#filter0_b_74_6172)">
<path d="M0 33C0 19.1929 11.1929 8 25 8H55C68.8071 8 80 19.1929 80 33V62.7908C80 76.5979 68.8071 87.7908 55 87.7908H25C11.1929 87.7908 0 76.5979 0 62.7908V33Z" fill="url(#paint0_radial_74_6172)"/>
<path d="M0.5 33C0.5 19.469 11.469 8.5 25 8.5H55C68.531 8.5 79.5 19.469 79.5 33V62.7908C79.5 76.3218 68.531 87.2908 55 87.2908H25C11.469 87.2908 0.5 76.3218 0.5 62.7908V33Z" stroke="url(#paint1_radial_74_6172)"/>
<path d="M0.5 33C0.5 19.469 11.469 8.5 25 8.5H55C68.531 8.5 79.5 19.469 79.5 33V62.7908C79.5 76.3218 68.531 87.2908 55 87.2908H25C11.469 87.2908 0.5 76.3218 0.5 62.7908V33Z" stroke="url(#paint2_radial_74_6172)"/>
<path d="M0.5 33C0.5 19.469 11.469 8.5 25 8.5H55C68.531 8.5 79.5 19.469 79.5 33V62.7908C79.5 76.3218 68.531 87.2908 55 87.2908H25C11.469 87.2908 0.5 76.3218 0.5 62.7908V33Z" stroke="url(#paint3_radial_74_6172)"/>
</g>
<g filter="url(#filter1_f_74_6172)">
<ellipse cx="39.744" cy="29.4821" rx="25.3846" ry="16.3673" fill="url(#paint4_radial_74_6172)" fill-opacity="0.2"/>
</g>
<mask id="mask0_74_6172" style="mask-type:alpha" maskUnits="userSpaceOnUse" x="9" y="18" width="61" height="56">
<ellipse cx="39.83" cy="46" rx="30.0488" ry="28" fill="white"/>
<ellipse cx="39.83" cy="46" rx="30.0488" ry="28" fill="url(#paint5_linear_74_6172)" fill-opacity="0.2"/>
</mask>
<g mask="url(#mask0_74_6172)">
<path d="M73.9763 46.3218V13.5366C73.9763 12.9843 73.5286 12.5366 72.9763 12.5366H6.68359C6.13131 12.5366 5.68359 12.9843 5.68359 13.5366V46.3218C5.6996 43.9046 5.87567 41.531 6.20646 40.0194C7.67902 33.1708 10.7575 27.4997 15.6821 22.5504C21.0921 17.093 28.2095 13.642 36.0845 12.6257C38.1973 12.3579 44.8345 12.7324 47.0594 13.2409C53.7232 14.7658 59.1333 17.7353 64.0045 22.5771C68.769 27.2856 71.9808 33.2512 73.4534 40.0194C73.7842 41.531 73.9603 43.9046 73.9763 46.3218Z" fill="white"/>
<path d="M73.9763 46.3218V13.5366C73.9763 12.9843 73.5286 12.5366 72.9763 12.5366H6.68359C6.13131 12.5366 5.68359 12.9843 5.68359 13.5366V46.3218C5.6996 43.9046 5.87567 41.531 6.20646 40.0194C7.67902 33.1708 10.7575 27.4997 15.6821 22.5504C21.0921 17.093 28.2095 13.642 36.0845 12.6257C38.1973 12.3579 44.8345 12.7324 47.0594 13.2409C53.7232 14.7658 59.1333 17.7353 64.0045 22.5771C68.769 27.2856 71.9808 33.2512 73.4534 40.0194C73.7842 41.531 73.9603 43.9046 73.9763 46.3218Z" fill="url(#paint6_linear_74_6172)" fill-opacity="0.2"/>
<path d="M73.9763 47.0928C73.9603 49.51 73.7842 51.8839 73.4534 53.3952C71.9808 60.1901 68.769 66.1024 63.9778 70.8908C59.1066 75.7063 53.3231 78.8362 46.5205 80.3078C44.9519 80.6509 42.4496 80.8246 39.9313 80.8293H72.9763C73.5286 80.8293 73.9763 80.3816 73.9763 79.8293V47.0928Z" fill="white"/>
<path d="M73.9763 47.0928C73.9603 49.51 73.7842 51.8839 73.4534 53.3952C71.9808 60.1901 68.769 66.1024 63.9778 70.8908C59.1066 75.7063 53.3231 78.8362 46.5205 80.3078C44.9519 80.6509 42.4496 80.8246 39.9313 80.8293H72.9763C73.5286 80.8293 73.9763 80.3816 73.9763 79.8293V47.0928Z" fill="url(#paint7_linear_74_6172)" fill-opacity="0.2"/>
<path d="M39.7232 80.8293C39.5205 80.8293 39.3177 80.8276 39.1203 80.825C36.8155 80.7956 34.5853 80.6232 33.1394 80.3078C19.4595 77.365 9.15158 67.0654 6.20646 53.3952C5.87567 51.8839 5.6996 49.51 5.68359 47.0928V79.8293C5.68359 80.3816 6.13131 80.8293 6.68359 80.8293H39.7232Z" fill="white"/>
<path d="M39.7232 80.8293C39.5205 80.8293 39.3177 80.8276 39.1203 80.825C36.8155 80.7956 34.5853 80.6232 33.1394 80.3078C19.4595 77.365 9.15158 67.0654 6.20646 53.3952C5.87567 51.8839 5.6996 49.51 5.68359 47.0928V79.8293C5.68359 80.3816 6.13131 80.8293 6.68359 80.8293H39.7232Z" fill="url(#paint8_linear_74_6172)" fill-opacity="0.2"/>
<path d="M41.9694 37.3978C41.9694 34.3479 41.836 34.2409 35.8658 30.8436C31.7735 28.5427 30.5677 27.9812 29.7354 28.0078C28.3696 28.0078 18.3604 33.5723 17.9069 34.5887C17.5014 35.4717 17.5014 46.7073 17.9069 47.5903C18.3604 48.58 28.4549 54.1978 29.7888 54.1978C30.5944 54.1978 32.6005 53.1814 39.8299 49.1149C46.6272 45.2894 49.0921 44.0323 49.7644 44.0323C50.8048 44.0323 56.2682 46.9214 57.0151 47.8577C57.3566 48.2832 57.5327 50.4447 57.5273 52.5138C57.5273 54.3485 57.3886 56.1105 57.0952 56.5254C56.5616 57.2743 51.1783 60.3508 50.0845 60.5379C49.3856 60.672 48.6653 60.3775 46.2004 59.0133C43.7514 57.6785 42.7804 57.1553 42.3589 56.345C42.0708 55.7911 42.0388 55.1032 41.9694 53.9304L41.9275 53.182C41.8857 52.4357 41.0697 51.9974 40.4244 52.3746L39.7766 52.7533L38.1906 53.6684C37.8811 53.847 37.6905 54.1772 37.6905 54.5346V56.3113C37.6905 58.4514 37.7438 58.7456 38.304 59.2808C38.6508 59.6286 41.1424 61.1265 43.8741 62.6514C47.6196 64.7382 49.0388 65.4068 49.7911 65.4338C50.5647 65.4338 51.9039 64.8182 55.8947 62.598C56.8924 62.0398 57.8635 61.4779 58.7118 60.9701C60.2164 60.0664 61.3261 59.3331 61.5129 59.0934C61.8543 58.6625 61.977 58.3161 62.0251 56.454C62.0464 55.541 62.0517 54.2632 62.0517 52.4321C62.0517 48.7671 61.945 46.2258 61.7529 45.8246C61.7049 45.7069 61.6676 45.6136 61.6196 45.5265C61.3741 45.0597 60.7872 44.7739 55.5959 41.8651C51.9039 39.7787 50.4313 39.1097 49.7377 39.1097C49.0388 39.1097 47.4595 39.8857 43.7141 41.9992L38.7575 44.8309L34.692 47.1355C31.9336 48.7137 30.4877 49.3827 29.8688 49.3827C29.2126 49.3827 26.3848 48.0201 24.4001 46.8577C23.5624 46.3672 22.8741 45.9123 22.5647 45.6105C22.0792 45.129 22.0258 44.7275 22.0258 41.0895C22.0258 38.7463 21.9618 37.6662 22.4153 36.8899C22.8848 36.0886 23.9092 35.6111 26.1234 34.4016C29.7354 32.3952 29.7354 32.3952 33.6196 34.5353C37.2049 36.5418 37.4183 36.8092 37.4183 39.6716C37.4183 40.9291 37.4984 41.8921 37.6371 41.8384C37.7438 41.7851 38.7575 41.2499 39.91 40.608L41.4571 39.7437C41.7734 39.567 41.9694 39.233 41.9694 38.8707V37.3978Z" fill="white"/>
<path d="M41.9694 37.3978C41.9694 34.3479 41.836 34.2409 35.8658 30.8436C31.7735 28.5427 30.5677 27.9812 29.7354 28.0078C28.3696 28.0078 18.3604 33.5723 17.9069 34.5887C17.5014 35.4717 17.5014 46.7073 17.9069 47.5903C18.3604 48.58 28.4549 54.1978 29.7888 54.1978C30.5944 54.1978 32.6005 53.1814 39.8299 49.1149C46.6272 45.2894 49.0921 44.0323 49.7644 44.0323C50.8048 44.0323 56.2682 46.9214 57.0151 47.8577C57.3566 48.2832 57.5327 50.4447 57.5273 52.5138C57.5273 54.3485 57.3886 56.1105 57.0952 56.5254C56.5616 57.2743 51.1783 60.3508 50.0845 60.5379C49.3856 60.672 48.6653 60.3775 46.2004 59.0133C43.7514 57.6785 42.7804 57.1553 42.3589 56.345C42.0708 55.7911 42.0388 55.1032 41.9694 53.9304L41.9275 53.182C41.8857 52.4357 41.0697 51.9974 40.4244 52.3746L39.7766 52.7533L38.1906 53.6684C37.8811 53.847 37.6905 54.1772 37.6905 54.5346V56.3113C37.6905 58.4514 37.7438 58.7456 38.304 59.2808C38.6508 59.6286 41.1424 61.1265 43.8741 62.6514C47.6196 64.7382 49.0388 65.4068 49.7911 65.4338C50.5647 65.4338 51.9039 64.8182 55.8947 62.598C56.8924 62.0398 57.8635 61.4779 58.7118 60.9701C60.2164 60.0664 61.3261 59.3331 61.5129 59.0934C61.8543 58.6625 61.977 58.3161 62.0251 56.454C62.0464 55.541 62.0517 54.2632 62.0517 52.4321C62.0517 48.7671 61.945 46.2258 61.7529 45.8246C61.7049 45.7069 61.6676 45.6136 61.6196 45.5265C61.3741 45.0597 60.7872 44.7739 55.5959 41.8651C51.9039 39.7787 50.4313 39.1097 49.7377 39.1097C49.0388 39.1097 47.4595 39.8857 43.7141 41.9992L38.7575 44.8309L34.692 47.1355C31.9336 48.7137 30.4877 49.3827 29.8688 49.3827C29.2126 49.3827 26.3848 48.0201 24.4001 46.8577C23.5624 46.3672 22.8741 45.9123 22.5647 45.6105C22.0792 45.129 22.0258 44.7275 22.0258 41.0895C22.0258 38.7463 21.9618 37.6662 22.4153 36.8899C22.8848 36.0886 23.9092 35.6111 26.1234 34.4016C29.7354 32.3952 29.7354 32.3952 33.6196 34.5353C37.2049 36.5418 37.4183 36.8092 37.4183 39.6716C37.4183 40.9291 37.4984 41.8921 37.6371 41.8384C37.7438 41.7851 38.7575 41.2499 39.91 40.608L41.4571 39.7437C41.7734 39.567 41.9694 39.233 41.9694 38.8707V37.3978Z" fill="url(#paint9_linear_74_6172)" fill-opacity="0.2"/>
</g>
<defs>
<filter id="filter0_b_74_6172" x="-5" y="3" width="90" height="89.7908" filterUnits="userSpaceOnUse" color-interpolation-filters="sRGB">
<feFlood flood-opacity="0" result="BackgroundImageFix"/>
<feGaussianBlur in="BackgroundImageFix" stdDeviation="2.5"/>
<feComposite in2="SourceAlpha" operator="in" result="effect1_backgroundBlur_74_6172"/>
<feBlend mode="normal" in="SourceGraphic" in2="effect1_backgroundBlur_74_6172" result="shape"/>
</filter>
<filter id="filter1_f_74_6172" x="1.40484" y="0.160212" width="76.6784" height="58.6437" filterUnits="userSpaceOnUse" color-interpolation-filters="sRGB">
<feFlood flood-opacity="0" result="BackgroundImageFix"/>
<feBlend mode="normal" in="SourceGraphic" in2="BackgroundImageFix" result="shape"/>
<feGaussianBlur stdDeviation="6.47727" result="effect1_foregroundBlur_74_6172"/>
</filter>
<radialGradient id="paint0_radial_74_6172" cx="0" cy="0" r="1" gradientUnits="userSpaceOnUse" gradientTransform="translate(6.69204 8) rotate(47.9449) scale(119.431 86.7751)">
<stop stop-color="white" stop-opacity="0.36"/>
<stop offset="1" stop-color="white" stop-opacity="0"/>
</radialGradient>
<radialGradient id="paint1_radial_74_6172" cx="0" cy="0" r="1" gradientUnits="userSpaceOnUse" gradientTransform="translate(-42.5965 16.1628) rotate(35.0407) scale(92.1512 54.3882)">
<stop stop-color="white"/>
<stop offset="1" stop-color="white" stop-opacity="0.06"/>
</radialGradient>
<radialGradient id="paint2_radial_74_6172" cx="0" cy="0" r="1" gradientUnits="userSpaceOnUse" gradientTransform="translate(103.421 61.4008) rotate(161.385) scale(66.8428 45.1784)">
<stop stop-color="#8470FF"/>
<stop offset="1" stop-color="#865CFF" stop-opacity="0"/>
</radialGradient>
<radialGradient id="paint3_radial_74_6172" cx="0" cy="0" r="1" gradientUnits="userSpaceOnUse" gradientTransform="translate(40.871 -10.2359) rotate(47.2149) scale(44.643 32.0879)">
<stop/>
<stop offset="1" stop-color="white" stop-opacity="0"/>
</radialGradient>
<radialGradient id="paint4_radial_74_6172" cx="0" cy="0" r="1" gradientUnits="userSpaceOnUse" gradientTransform="translate(39.744 13.1147) rotate(90) scale(24.2566 37.625)">
<stop stop-color="white"/>
<stop offset="1" stop-color="white" stop-opacity="0"/>
</radialGradient>
<linearGradient id="paint5_linear_74_6172" x1="75.3832" y1="18" x2="2.8611" y2="29.2031" gradientUnits="userSpaceOnUse">
<stop stop-color="#19FB9B"/>
<stop offset="1" stop-color="#8C01FA"/>
</linearGradient>
<linearGradient id="paint6_linear_74_6172" x1="80.2313" y1="12.5366" x2="-2.434" y2="24.436" gradientUnits="userSpaceOnUse">
<stop stop-color="#19FB9B"/>
<stop offset="1" stop-color="#8C01FA"/>
</linearGradient>
<linearGradient id="paint7_linear_74_6172" x1="80.2313" y1="12.5366" x2="-2.434" y2="24.436" gradientUnits="userSpaceOnUse">
<stop stop-color="#19FB9B"/>
<stop offset="1" stop-color="#8C01FA"/>
</linearGradient>
<linearGradient id="paint8_linear_74_6172" x1="80.2313" y1="12.5366" x2="-2.434" y2="24.436" gradientUnits="userSpaceOnUse">
<stop stop-color="#19FB9B"/>
<stop offset="1" stop-color="#8C01FA"/>
</linearGradient>
<linearGradient id="paint9_linear_74_6172" x1="80.2313" y1="12.5366" x2="-2.434" y2="24.436" gradientUnits="userSpaceOnUse">
<stop stop-color="#19FB9B"/>
<stop offset="1" stop-color="#8C01FA"/>
</linearGradient>
</defs>
</svg>
