<svg width="80" height="88" viewBox="0 0 80 88" fill="none" xmlns="http://www.w3.org/2000/svg">
<g filter="url(#filter0_b_74_6162)">
<path d="M0 33C0 19.1929 11.1929 8 25 8H55C68.8071 8 80 19.1929 80 33V62.7908C80 76.5979 68.8071 87.7908 55 87.7908H25C11.1929 87.7908 0 76.5979 0 62.7908V33Z" fill="url(#paint0_radial_74_6162)"/>
<path d="M0.5 33C0.5 19.469 11.469 8.5 25 8.5H55C68.531 8.5 79.5 19.469 79.5 33V62.7908C79.5 76.3218 68.531 87.2908 55 87.2908H25C11.469 87.2908 0.5 76.3218 0.5 62.7908V33Z" stroke="url(#paint1_radial_74_6162)"/>
<path d="M0.5 33C0.5 19.469 11.469 8.5 25 8.5H55C68.531 8.5 79.5 19.469 79.5 33V62.7908C79.5 76.3218 68.531 87.2908 55 87.2908H25C11.469 87.2908 0.5 76.3218 0.5 62.7908V33Z" stroke="url(#paint2_radial_74_6162)"/>
<path d="M0.5 33C0.5 19.469 11.469 8.5 25 8.5H55C68.531 8.5 79.5 19.469 79.5 33V62.7908C79.5 76.3218 68.531 87.2908 55 87.2908H25C11.469 87.2908 0.5 76.3218 0.5 62.7908V33Z" stroke="url(#paint3_radial_74_6162)"/>
</g>
<g filter="url(#filter1_f_74_6162)">
<ellipse cx="39.744" cy="29.4821" rx="25.3846" ry="16.3673" fill="url(#paint4_radial_74_6162)" fill-opacity="0.2"/>
</g>
<path d="M31.627 35.422C27.5449 42.1994 24.1074 47.9025 23.9902 48.0978C23.867 48.2961 23.931 48.5568 24.1319 48.6756L31.4023 52.9709C35.6016 55.4611 39.0977 57.4728 39.1855 57.4435C39.3711 57.3947 54.127 48.7131 54.3125 48.547C54.4004 48.4592 52.7793 45.6955 46.8027 35.7638C42.6133 28.8009 39.1465 23.0978 39.1172 23.0978C39.0781 23.0978 35.709 28.6447 31.627 35.422Z" fill="white"/>
<path d="M31.627 35.422C27.5449 42.1994 24.1074 47.9025 23.9902 48.0978C23.867 48.2961 23.931 48.5568 24.1319 48.6756L31.4023 52.9709C35.6016 55.4611 39.0977 57.4728 39.1855 57.4435C39.3711 57.3947 54.127 48.7131 54.3125 48.547C54.4004 48.4592 52.7793 45.6955 46.8027 35.7638C42.6133 28.8009 39.1465 23.0978 39.1172 23.0978C39.0781 23.0978 35.709 28.6447 31.627 35.422Z" fill="url(#paint5_linear_74_6162)" fill-opacity="0.2"/>
<path d="M23.7734 51.7207C23.9102 51.9062 27.3574 56.75 31.4297 62.5019C35.1112 67.6932 38.1942 72.0464 38.7591 72.8483C38.821 72.9362 38.8847 72.9384 38.948 72.8516C39.5337 72.0489 42.7138 67.5949 46.5078 62.248C50.302 56.9098 53.4663 52.4325 54.0271 51.6112C54.0877 51.5224 54.0671 51.498 53.9731 51.5502C53.2858 51.9317 50.191 53.7469 46.5176 55.9199C42.3574 58.3808 38.9199 60.4023 38.8906 60.4023C38.8613 60.4023 35.502 58.4297 31.4199 56.0273C27.3477 53.6152 23.9004 51.584 23.7637 51.5156C23.7055 51.4854 23.6469 51.5552 23.6867 51.6072L23.7734 51.7207Z" fill="white"/>
<path d="M23.7734 51.7207C23.9102 51.9062 27.3574 56.75 31.4297 62.5019C35.1112 67.6932 38.1942 72.0464 38.7591 72.8483C38.821 72.9362 38.8847 72.9384 38.948 72.8516C39.5337 72.0489 42.7138 67.5949 46.5078 62.248C50.302 56.9098 53.4663 52.4325 54.0271 51.6112C54.0877 51.5224 54.0671 51.498 53.9731 51.5502C53.2858 51.9317 50.191 53.7469 46.5176 55.9199C42.3574 58.3808 38.9199 60.4023 38.8906 60.4023C38.8613 60.4023 35.502 58.4297 31.4199 56.0273C27.3477 53.6152 23.9004 51.584 23.7637 51.5156C23.7055 51.4854 23.6469 51.5552 23.6867 51.6072L23.7734 51.7207Z" fill="url(#paint6_linear_74_6162)" fill-opacity="0.2"/>
<defs>
<filter id="filter0_b_74_6162" x="-5" y="3" width="90" height="89.7908" filterUnits="userSpaceOnUse" color-interpolation-filters="sRGB">
<feFlood flood-opacity="0" result="BackgroundImageFix"/>
<feGaussianBlur in="BackgroundImageFix" stdDeviation="2.5"/>
<feComposite in2="SourceAlpha" operator="in" result="effect1_backgroundBlur_74_6162"/>
<feBlend mode="normal" in="SourceGraphic" in2="effect1_backgroundBlur_74_6162" result="shape"/>
</filter>
<filter id="filter1_f_74_6162" x="1.40484" y="0.160212" width="76.6784" height="58.6437" filterUnits="userSpaceOnUse" color-interpolation-filters="sRGB">
<feFlood flood-opacity="0" result="BackgroundImageFix"/>
<feBlend mode="normal" in="SourceGraphic" in2="BackgroundImageFix" result="shape"/>
<feGaussianBlur stdDeviation="6.47727" result="effect1_foregroundBlur_74_6162"/>
</filter>
<radialGradient id="paint0_radial_74_6162" cx="0" cy="0" r="1" gradientUnits="userSpaceOnUse" gradientTransform="translate(6.69204 8) rotate(47.9449) scale(119.431 86.7751)">
<stop stop-color="white" stop-opacity="0.36"/>
<stop offset="1" stop-color="white" stop-opacity="0"/>
</radialGradient>
<radialGradient id="paint1_radial_74_6162" cx="0" cy="0" r="1" gradientUnits="userSpaceOnUse" gradientTransform="translate(-42.5965 16.1628) rotate(35.0407) scale(92.1512 54.3882)">
<stop stop-color="white"/>
<stop offset="1" stop-color="white" stop-opacity="0.06"/>
</radialGradient>
<radialGradient id="paint2_radial_74_6162" cx="0" cy="0" r="1" gradientUnits="userSpaceOnUse" gradientTransform="translate(103.421 61.4008) rotate(161.385) scale(66.8428 45.1784)">
<stop stop-color="#8470FF"/>
<stop offset="1" stop-color="#865CFF" stop-opacity="0"/>
</radialGradient>
<radialGradient id="paint3_radial_74_6162" cx="0" cy="0" r="1" gradientUnits="userSpaceOnUse" gradientTransform="translate(40.871 -10.2359) rotate(47.2149) scale(44.643 32.0879)">
<stop/>
<stop offset="1" stop-color="white" stop-opacity="0"/>
</radialGradient>
<radialGradient id="paint4_radial_74_6162" cx="0" cy="0" r="1" gradientUnits="userSpaceOnUse" gradientTransform="translate(39.744 13.1147) rotate(90) scale(24.2566 37.625)">
<stop stop-color="white"/>
<stop offset="1" stop-color="white" stop-opacity="0"/>
</radialGradient>
<linearGradient id="paint5_linear_74_6162" x1="57.114" y1="57.4438" x2="19.9769" y2="52.6889" gradientUnits="userSpaceOnUse">
<stop stop-color="#19FB9B"/>
<stop offset="1" stop-color="#8C01FA"/>
</linearGradient>
<linearGradient id="paint6_linear_74_6162" x1="56.9176" y1="72.9805" x2="20.6253" y2="65.5778" gradientUnits="userSpaceOnUse">
<stop stop-color="#19FB9B"/>
<stop offset="1" stop-color="#8C01FA"/>
</linearGradient>
</defs>
</svg>
