<svg width="80" height="88" viewBox="0 0 80 88" fill="none" xmlns="http://www.w3.org/2000/svg">
<g filter="url(#filter0_b_74_6125)">
<path d="M0 33C0 19.1929 11.1929 8 25 8H55C68.8071 8 80 19.1929 80 33V62.7908C80 76.5979 68.8071 87.7908 55 87.7908H25C11.1929 87.7908 0 76.5979 0 62.7908V33Z" fill="url(#paint0_radial_74_6125)"/>
<path d="M0.5 33C0.5 19.469 11.469 8.5 25 8.5H55C68.531 8.5 79.5 19.469 79.5 33V62.7908C79.5 76.3218 68.531 87.2908 55 87.2908H25C11.469 87.2908 0.5 76.3218 0.5 62.7908V33Z" stroke="url(#paint1_radial_74_6125)"/>
<path d="M0.5 33C0.5 19.469 11.469 8.5 25 8.5H55C68.531 8.5 79.5 19.469 79.5 33V62.7908C79.5 76.3218 68.531 87.2908 55 87.2908H25C11.469 87.2908 0.5 76.3218 0.5 62.7908V33Z" stroke="url(#paint2_radial_74_6125)"/>
<path d="M0.5 33C0.5 19.469 11.469 8.5 25 8.5H55C68.531 8.5 79.5 19.469 79.5 33V62.7908C79.5 76.3218 68.531 87.2908 55 87.2908H25C11.469 87.2908 0.5 76.3218 0.5 62.7908V33Z" stroke="url(#paint3_radial_74_6125)"/>
</g>
<g filter="url(#filter1_f_74_6125)">
<ellipse cx="39.744" cy="29.4821" rx="25.3846" ry="16.3673" fill="url(#paint4_radial_74_6125)" fill-opacity="0.2"/>
</g>
<g clip-path="url(#clip0_74_6125)">
<path d="M49.5678 25.099C49.5682 25.0994 49.5679 25.1001 49.5674 25.1001L27.0236 27.2968C26.9698 27.3021 26.922 27.2635 26.9114 27.2106C26.8499 26.903 26.6865 26.624 26.4461 26.4196C26.1811 26.1943 25.8415 26.0758 25.4938 26.0875C25.1031 26.0929 24.73 26.2504 24.4538 26.5267C24.1775 26.8029 24.02 27.176 24.0146 27.5667C24.0146 28.0676 24.2719 28.4637 24.6242 28.7258C24.6636 28.7551 24.6786 28.8078 24.6581 28.8523L15.229 49.3072C15.2236 49.3189 15.216 49.3295 15.2066 49.3384L15.1229 49.4167C14.9979 49.5417 15 49.5417 15 49.6667C15 49.6667 15 49.7513 15.0721 49.7789C15.1024 49.7905 15.1341 49.8033 15.1528 49.8298L28.2819 68.4193C28.3084 68.4569 28.3056 68.5075 28.2773 68.5438C28.0822 68.7939 27.9716 69.1003 27.9625 69.4187C27.9625 70.2833 28.7021 70.8979 29.4417 70.8979C29.6296 70.9049 29.8171 70.8743 29.9931 70.8081C30.1691 70.7418 30.3302 70.6412 30.4669 70.512C30.6036 70.3829 30.7132 70.2278 30.7894 70.0558C30.8535 69.911 30.8928 69.7566 30.9059 69.5992C30.91 69.5487 30.9485 69.5067 30.9989 69.5018L53.0962 67.3459C53.111 67.3445 53.126 67.3464 53.1401 67.3515L53.3387 67.4237C53.3727 67.4361 53.4114 67.4297 53.4356 67.4029C53.4497 67.3873 53.4627 67.3708 53.4746 67.3535C53.4934 67.3262 53.5221 67.3076 53.5543 67.2996C53.5998 67.2881 53.6343 67.2658 53.6421 67.2177C53.6444 67.2034 53.6469 67.189 53.6529 67.1759L63.0869 46.699C63.1076 46.6541 63.158 46.6312 63.2055 46.6451C63.308 46.6749 63.4121 46.7021 63.5188 46.7021C64.2604 46.7021 65 45.9625 65 45.2229C64.9962 44.8312 64.8394 44.4565 64.563 44.1789C64.2866 43.9013 63.9125 43.7429 63.5208 43.7375C63.3594 43.7387 63.1995 43.767 63.0478 43.821C63.0036 43.8367 62.9537 43.8227 62.9266 43.7844L49.8174 25.2299C49.8141 25.2252 49.8104 25.2208 49.8064 25.2168C49.688 25.0984 49.6855 25.0979 49.5683 25.0979C49.5677 25.0979 49.5674 25.0986 49.5678 25.099ZM48 25.7281C48.1081 25.7181 48.1525 25.8633 48.0573 25.9154L38.201 31.3113C38.1777 31.3241 38.1503 31.327 38.1248 31.3195L26.9484 28.0328C26.8921 28.0163 26.8623 27.9551 26.8807 27.8994C26.8957 27.8539 26.9091 27.8077 26.9209 27.7612C26.9315 27.7188 26.9672 27.6868 27.0107 27.6827L48 25.7281ZM49.2069 25.7807C49.265 25.7486 49.3378 25.7811 49.3527 25.8458L52.1024 37.7889C52.1223 37.8755 52.0277 37.9432 51.9522 37.8963L45.7567 34.0517C45.7078 34.0214 45.6948 33.9563 45.7253 33.9076C45.8502 33.708 45.9384 33.4873 45.9854 33.2561C45.9868 33.2493 45.9875 33.2423 45.9873 33.2353C45.9793 32.8485 45.8221 32.4796 45.5483 32.2058C45.2721 31.9296 44.899 31.772 44.5083 31.7667C44.1991 31.7702 43.8987 31.8705 43.6494 32.0537C43.4263 32.2176 43.2542 32.4404 43.1518 32.6962C43.1318 32.7464 43.0775 32.7754 43.0256 32.7601L39.0364 31.5884C38.9511 31.5634 38.9384 31.4479 39.0163 31.4049L49.2069 25.7807ZM50.0007 26.7169C49.9766 26.6101 50.117 26.5478 50.18 26.6373L62.4686 44.085C62.4973 44.1258 62.4912 44.1814 62.459 44.2196C62.4438 44.2376 62.4293 44.2561 62.4152 44.275C62.3838 44.3169 62.326 44.3286 62.2815 44.301L52.6544 38.3304C52.6316 38.3163 52.6154 38.2936 52.6095 38.2674L50.0007 26.7169ZM26.7374 28.2645C26.7615 28.2228 26.8105 28.2015 26.8566 28.2151L37.6694 31.4089C37.7547 31.4341 37.7671 31.5498 37.689 31.5926L30.3951 35.5858C30.347 35.6121 30.2867 35.5949 30.2599 35.5471L26.4394 28.7472C26.4164 28.7062 26.4252 28.655 26.4587 28.6222C26.5671 28.516 26.6614 28.3957 26.7374 28.2645ZM25.9022 28.9792C25.9503 28.963 26.0041 28.9812 26.029 29.0254L29.8215 35.778C29.8266 35.787 29.8302 35.7968 29.8323 35.807L29.8429 35.8591C29.8499 35.8935 29.8383 35.9291 29.8124 35.9528L25.6613 39.7549C25.5971 39.8136 25.4938 39.7681 25.4938 39.6811V29.1472C25.4938 29.0923 25.5382 29.048 25.593 29.0434C25.6983 29.0347 25.8021 29.0131 25.9022 28.9792ZM25.0527 29.0493C25.0738 29.0033 25.1257 28.9807 25.1748 28.9926C25.2097 29.0011 25.2449 29.0081 25.28 29.0137C25.3312 29.0219 25.3708 29.0647 25.3708 29.1165V39.981C25.3708 40.009 25.3591 40.0358 25.3384 40.0547L16.5327 48.1248C16.4523 48.1984 16.3288 48.1086 16.3742 48.0094L25.0527 29.0493ZM38.503 31.6868C38.5264 31.6739 38.554 31.6709 38.5797 31.6785L42.9848 32.9802C43.0346 32.9949 43.0641 33.0452 43.0501 33.0952C43.0361 33.1451 43.0229 33.1946 43.0229 33.2458C43.0229 33.5559 43.1352 33.8191 43.295 34.0445C43.3259 34.088 43.3203 34.1483 43.28 34.1832L38.1254 38.6409C38.0981 38.6645 38.0602 38.6716 38.0263 38.6594L30.8646 36.0914C30.7836 36.0623 30.7747 35.9513 30.8501 35.9097L38.503 31.6868ZM43.3367 34.2738C43.3785 34.2376 43.4415 34.2426 43.4803 34.282C43.6028 34.4064 43.7463 34.5088 43.9045 34.5841C44.0928 34.6737 44.2977 34.7232 44.5063 34.7292C44.5203 34.7292 44.5342 34.7282 44.548 34.7266C44.6008 34.7207 44.6495 34.7533 44.6595 34.8055L45.9107 41.3258C45.9253 41.4018 45.8517 41.4649 45.7788 41.4388L38.3489 38.7766C38.2768 38.7507 38.2593 38.6568 38.3173 38.6067L43.3367 34.2738ZM45.436 34.3074C45.4704 34.2728 45.524 34.2646 45.5654 34.2904L52.2188 38.4259C52.2415 38.44 52.2575 38.4625 52.2635 38.4884L53.5464 44.0591C53.5642 44.1362 53.4897 44.2024 53.4152 44.1757L46.1456 41.5693C46.1122 41.5573 46.0876 41.5286 46.0811 41.4937L44.8168 34.7745C44.8073 34.724 44.8378 34.6748 44.8863 34.6574C45.0932 34.5831 45.281 34.4635 45.436 34.3074ZM30.4652 36.5056C30.4502 36.4295 30.5237 36.3661 30.5967 36.392L37.6172 38.8821C37.6894 38.9077 37.7072 39.0018 37.6492 39.052L32.0698 43.8769C32.0118 43.9271 31.9211 43.8959 31.9063 43.8206L30.4652 36.5056ZM29.842 36.6366C29.8995 36.5839 29.9924 36.6143 30.0076 36.6908L31.5199 44.2845C31.5269 44.3198 31.5144 44.3562 31.4872 44.3797L26.6439 48.5636C26.604 48.5981 26.5444 48.5954 26.5051 48.5602C26.3795 48.4476 26.2354 48.3574 26.0788 48.2936C25.9248 48.2309 25.7615 48.1948 25.5959 48.1868C25.5399 48.1841 25.4938 48.1393 25.4938 48.0833V40.6628C25.4938 40.6347 25.5055 40.6079 25.5262 40.589L29.842 36.6366ZM52.7672 38.9685C52.7477 38.882 52.8422 38.8147 52.9175 38.8616L62.1088 44.5765C62.1514 44.6031 62.1675 44.6571 62.1525 44.7051C62.1475 44.7212 62.1428 44.7373 62.1383 44.7535C62.1257 44.7989 62.0832 44.8288 62.0362 44.8254L54.0302 44.2429C53.9863 44.2397 53.9496 44.2081 53.9399 44.1651L52.7672 38.9685ZM37.8414 39.0171C37.8686 38.9936 37.9063 38.9866 37.9402 38.9986L45.9606 41.8433C45.994 41.8552 46.0187 41.8839 46.0254 41.9188L47.4766 49.493C47.4833 49.5283 47.4707 49.5644 47.4435 49.5877L41.1206 55.0126C41.0937 55.0358 41.0564 55.0429 41.0229 55.0313L33.6648 52.4896C33.6311 52.478 33.6062 52.4493 33.5993 52.4144L31.9696 44.1466C31.9626 44.1114 31.9752 44.0751 32.0024 44.0516L37.8414 39.0171ZM25.2033 40.8825C25.2675 40.8237 25.3708 40.8693 25.3708 40.9562V48.1069C25.3708 48.1585 25.3315 48.2013 25.2806 48.2092C24.9477 48.2613 24.641 48.4241 24.4111 48.6728C24.1604 48.9437 24.0185 49.2976 24.0125 49.6667C24.0174 50.058 24.175 50.4319 24.4517 50.7087C24.7285 50.9854 25.1024 51.143 25.4938 51.1479C25.5233 51.1479 25.551 51.1418 25.5784 51.1346C25.6299 51.1209 25.6786 51.1536 25.6885 51.2059L26.4788 55.3747C26.4946 55.4581 26.4058 55.5221 26.3317 55.4805L15.8602 49.6114C15.8008 49.578 15.7914 49.4964 15.8416 49.4504L25.2033 40.8825ZM46.1946 42.0834C46.1804 42.0076 46.2537 41.9449 46.3263 41.9707L53.2312 44.4235C53.3036 44.4492 53.3211 44.5436 53.2628 44.5936L47.7127 49.3559C47.6543 49.4061 47.5635 49.3742 47.5493 49.2985L46.1946 42.0834ZM31.4201 44.5537C31.4781 44.5037 31.5686 44.5348 31.5835 44.6099L33.0826 52.129C33.0977 52.2047 33.0249 52.2683 32.9519 52.2431L26.938 50.1666C26.8827 50.1476 26.8558 50.0855 26.8763 50.0307C26.9197 49.9154 26.9523 49.7962 26.9736 49.6746C26.9746 49.6693 26.975 49.6639 26.975 49.6585C26.9759 49.339 26.8729 49.0286 26.683 48.7736C26.6501 48.7294 26.6545 48.6667 26.6962 48.6308L31.4201 44.5537ZM54.006 44.8386C54.0073 44.7813 54.0562 44.7368 54.1133 44.741L61.9613 45.3167C62.0101 45.3203 62.0487 45.3587 62.0562 45.407C62.0839 45.5877 62.1469 45.7611 62.2415 45.9175C62.2676 45.9607 62.2613 46.0169 62.2237 46.0506L53.9863 53.4295C53.9212 53.4879 53.8177 53.4403 53.8196 53.3528L54.006 44.8386ZM53.4611 45.1672C53.5267 45.1107 53.6282 45.1587 53.6263 45.2452L53.4343 53.8796C53.4337 53.9072 53.4216 53.9334 53.4011 53.9518L50.2379 56.7857C50.1998 56.8199 50.1422 56.8194 50.1023 56.7874C49.8453 56.5815 49.5268 56.4653 49.1958 56.4583C49.1264 56.4583 49.0635 56.474 49.0002 56.4895C48.9472 56.5024 48.8961 56.4674 48.886 56.4138L47.7148 50.1754C47.7082 50.1403 47.7208 50.1044 47.7479 50.0811L53.4611 45.1672ZM62.4657 46.368C62.5041 46.3341 62.5623 46.3347 62.6063 46.3612C62.619 46.3688 62.6319 46.3761 62.6448 46.3835C62.6871 46.4075 62.7018 46.4593 62.6815 46.5035L53.7368 65.9395C53.6914 66.0381 53.5436 66.004 53.546 65.8955L53.8053 54.0459C53.8059 54.018 53.8182 53.9916 53.8391 53.9731L62.4657 46.368ZM47.4816 50.3084C47.5399 50.2583 47.6305 50.2899 47.645 50.3654L48.8064 56.4278C48.8167 56.4816 48.7816 56.5334 48.7288 56.5481C48.5385 56.6012 48.3616 56.6952 48.2107 56.8239C48.0595 56.9529 47.9386 57.1132 47.8562 57.2932C47.8336 57.3426 47.7778 57.3692 47.7266 57.3514L41.8749 55.3277C41.802 55.3025 41.7839 55.2077 41.8424 55.1574L47.4816 50.3084ZM26.7209 50.3875C26.746 50.3441 26.7979 50.3226 26.8453 50.339L33.1042 52.5042C33.1377 52.5158 33.1626 52.5443 33.1695 52.5791L34.6368 59.9434C34.6534 60.0271 34.5643 60.0919 34.4898 60.0502L26.7238 55.6997C26.6981 55.6854 26.6801 55.6604 26.6745 55.6315L25.8118 51.1785C25.8017 51.1263 25.8343 51.0757 25.885 51.0596C26.0584 51.0044 26.2204 50.9179 26.3629 50.8039C26.5073 50.6884 26.6286 50.5471 26.7209 50.3875ZM16.347 50.6985C16.2853 50.6115 16.3846 50.5012 16.4776 50.5535L26.6115 56.2501C26.6372 56.2646 26.6553 56.2896 26.6608 56.3186L28.8767 67.9714C28.8855 68.0173 28.8609 68.0631 28.8217 68.0886C28.8143 68.0934 28.807 68.0983 28.7997 68.1033C28.7567 68.1326 28.6997 68.1215 28.6696 68.079L16.347 50.6985ZM33.6857 52.8644C33.6708 52.7887 33.7436 52.7253 33.8165 52.7505L40.7415 55.141C40.8145 55.1662 40.8326 55.2611 40.774 55.3114L35.2551 60.0488C35.197 60.0986 35.1066 60.0674 35.0918 59.9922L33.6857 52.8644ZM53.2539 54.486C53.3193 54.4285 53.4219 54.4762 53.4199 54.5633L53.151 66.6907C53.1495 66.7589 53.0817 66.8055 53.0175 66.7827L41.5408 62.6932C41.4605 62.6647 41.4505 62.5553 41.5242 62.5125L47.9188 58.8034C47.9644 58.7769 48.0225 58.7907 48.0545 58.8327C48.1794 58.9966 48.3369 59.1333 48.5174 59.234C48.7254 59.3499 48.9579 59.4146 49.1958 59.4229C49.5879 59.4175 49.9624 59.2592 50.2395 58.9817C50.5165 58.7043 50.6743 58.3296 50.6792 57.9375C50.6734 57.6444 50.5765 57.3613 50.403 57.1271C50.3705 57.0831 50.3746 57.021 50.4156 56.9849L53.2539 54.486ZM41.4981 55.4541C41.5251 55.4309 41.5623 55.4238 41.596 55.4354L47.6989 57.5437C47.747 57.5603 47.7747 57.6104 47.7622 57.6597C47.7394 57.7494 47.7167 57.8381 47.7167 57.9375C47.7167 58.1332 47.7592 58.3138 47.8275 58.4804C47.8472 58.5285 47.83 58.5846 47.785 58.6107L41.0817 62.4914C41.0563 62.5061 41.0257 62.5089 40.9981 62.4991L35.7185 60.6202C35.6462 60.5945 35.6287 60.5002 35.6869 60.4502L41.4981 55.4541ZM26.8557 56.5788C26.8395 56.4951 26.9286 56.4308 27.0029 56.4726L34.6103 60.7525C34.6602 60.7806 34.6763 60.8448 34.6457 60.8932L30.1396 68.0056C30.1123 68.0486 30.0571 68.0639 30.01 68.0444C29.745 67.9348 29.4533 67.9074 29.1728 67.9654C29.1153 67.9773 29.057 67.942 29.0459 67.8843L26.8557 56.5788ZM35.0719 61.0527C35.0969 61.0133 35.1458 60.9964 35.1897 61.012L40.229 62.7944C40.3094 62.8228 40.3196 62.9325 40.2457 62.9752L30.7078 68.4941C30.6632 68.5199 30.6068 68.5072 30.5776 68.4647C30.5593 68.438 30.5405 68.4115 30.5199 68.3863C30.4892 68.3486 30.4815 68.295 30.5075 68.254L35.0719 61.0527ZM40.6934 62.9961C40.7187 62.9814 40.7493 62.9785 40.7769 62.9883L51.8312 66.8942C51.9323 66.9299 51.914 67.0781 51.8072 67.088L30.943 69.0315C30.8933 69.0361 30.8481 69.0033 30.8359 68.9548C30.826 68.9156 30.8153 68.8769 30.8024 68.839C30.7858 68.79 30.803 68.7343 30.8478 68.7083L40.6934 62.9961Z" fill="white"/>
<path d="M49.5678 25.099C49.5682 25.0994 49.5679 25.1001 49.5674 25.1001L27.0236 27.2968C26.9698 27.3021 26.922 27.2635 26.9114 27.2106C26.8499 26.903 26.6865 26.624 26.4461 26.4196C26.1811 26.1943 25.8415 26.0758 25.4938 26.0875C25.1031 26.0929 24.73 26.2504 24.4538 26.5267C24.1775 26.8029 24.02 27.176 24.0146 27.5667C24.0146 28.0676 24.2719 28.4637 24.6242 28.7258C24.6636 28.7551 24.6786 28.8078 24.6581 28.8523L15.229 49.3072C15.2236 49.3189 15.216 49.3295 15.2066 49.3384L15.1229 49.4167C14.9979 49.5417 15 49.5417 15 49.6667C15 49.6667 15 49.7513 15.0721 49.7789C15.1024 49.7905 15.1341 49.8033 15.1528 49.8298L28.2819 68.4193C28.3084 68.4569 28.3056 68.5075 28.2773 68.5438C28.0822 68.7939 27.9716 69.1003 27.9625 69.4187C27.9625 70.2833 28.7021 70.8979 29.4417 70.8979C29.6296 70.9049 29.8171 70.8743 29.9931 70.8081C30.1691 70.7418 30.3302 70.6412 30.4669 70.512C30.6036 70.3829 30.7132 70.2278 30.7894 70.0558C30.8535 69.911 30.8928 69.7566 30.9059 69.5992C30.91 69.5487 30.9485 69.5067 30.9989 69.5018L53.0962 67.3459C53.111 67.3445 53.126 67.3464 53.1401 67.3515L53.3387 67.4237C53.3727 67.4361 53.4114 67.4297 53.4356 67.4029C53.4497 67.3873 53.4627 67.3708 53.4746 67.3535C53.4934 67.3262 53.5221 67.3076 53.5543 67.2996C53.5998 67.2881 53.6343 67.2658 53.6421 67.2177C53.6444 67.2034 53.6469 67.189 53.6529 67.1759L63.0869 46.699C63.1076 46.6541 63.158 46.6312 63.2055 46.6451C63.308 46.6749 63.4121 46.7021 63.5188 46.7021C64.2604 46.7021 65 45.9625 65 45.2229C64.9962 44.8312 64.8394 44.4565 64.563 44.1789C64.2866 43.9013 63.9125 43.7429 63.5208 43.7375C63.3594 43.7387 63.1995 43.767 63.0478 43.821C63.0036 43.8367 62.9537 43.8227 62.9266 43.7844L49.8174 25.2299C49.8141 25.2252 49.8104 25.2208 49.8064 25.2168C49.688 25.0984 49.6855 25.0979 49.5683 25.0979C49.5677 25.0979 49.5674 25.0986 49.5678 25.099ZM48 25.7281C48.1081 25.7181 48.1525 25.8633 48.0573 25.9154L38.201 31.3113C38.1777 31.3241 38.1503 31.327 38.1248 31.3195L26.9484 28.0328C26.8921 28.0163 26.8623 27.9551 26.8807 27.8994C26.8957 27.8539 26.9091 27.8077 26.9209 27.7612C26.9315 27.7188 26.9672 27.6868 27.0107 27.6827L48 25.7281ZM49.2069 25.7807C49.265 25.7486 49.3378 25.7811 49.3527 25.8458L52.1024 37.7889C52.1223 37.8755 52.0277 37.9432 51.9522 37.8963L45.7567 34.0517C45.7078 34.0214 45.6948 33.9563 45.7253 33.9076C45.8502 33.708 45.9384 33.4873 45.9854 33.2561C45.9868 33.2493 45.9875 33.2423 45.9873 33.2353C45.9793 32.8485 45.8221 32.4796 45.5483 32.2058C45.2721 31.9296 44.899 31.772 44.5083 31.7667C44.1991 31.7702 43.8987 31.8705 43.6494 32.0537C43.4263 32.2176 43.2542 32.4404 43.1518 32.6962C43.1318 32.7464 43.0775 32.7754 43.0256 32.7601L39.0364 31.5884C38.9511 31.5634 38.9384 31.4479 39.0163 31.4049L49.2069 25.7807ZM50.0007 26.7169C49.9766 26.6101 50.117 26.5478 50.18 26.6373L62.4686 44.085C62.4973 44.1258 62.4912 44.1814 62.459 44.2196C62.4438 44.2376 62.4293 44.2561 62.4152 44.275C62.3838 44.3169 62.326 44.3286 62.2815 44.301L52.6544 38.3304C52.6316 38.3163 52.6154 38.2936 52.6095 38.2674L50.0007 26.7169ZM26.7374 28.2645C26.7615 28.2228 26.8105 28.2015 26.8566 28.2151L37.6694 31.4089C37.7547 31.4341 37.7671 31.5498 37.689 31.5926L30.3951 35.5858C30.347 35.6121 30.2867 35.5949 30.2599 35.5471L26.4394 28.7472C26.4164 28.7062 26.4252 28.655 26.4587 28.6222C26.5671 28.516 26.6614 28.3957 26.7374 28.2645ZM25.9022 28.9792C25.9503 28.963 26.0041 28.9812 26.029 29.0254L29.8215 35.778C29.8266 35.787 29.8302 35.7968 29.8323 35.807L29.8429 35.8591C29.8499 35.8935 29.8383 35.9291 29.8124 35.9528L25.6613 39.7549C25.5971 39.8136 25.4938 39.7681 25.4938 39.6811V29.1472C25.4938 29.0923 25.5382 29.048 25.593 29.0434C25.6983 29.0347 25.8021 29.0131 25.9022 28.9792ZM25.0527 29.0493C25.0738 29.0033 25.1257 28.9807 25.1748 28.9926C25.2097 29.0011 25.2449 29.0081 25.28 29.0137C25.3312 29.0219 25.3708 29.0647 25.3708 29.1165V39.981C25.3708 40.009 25.3591 40.0358 25.3384 40.0547L16.5327 48.1248C16.4523 48.1984 16.3288 48.1086 16.3742 48.0094L25.0527 29.0493ZM38.503 31.6868C38.5264 31.6739 38.554 31.6709 38.5797 31.6785L42.9848 32.9802C43.0346 32.9949 43.0641 33.0452 43.0501 33.0952C43.0361 33.1451 43.0229 33.1946 43.0229 33.2458C43.0229 33.5559 43.1352 33.8191 43.295 34.0445C43.3259 34.088 43.3203 34.1483 43.28 34.1832L38.1254 38.6409C38.0981 38.6645 38.0602 38.6716 38.0263 38.6594L30.8646 36.0914C30.7836 36.0623 30.7747 35.9513 30.8501 35.9097L38.503 31.6868ZM43.3367 34.2738C43.3785 34.2376 43.4415 34.2426 43.4803 34.282C43.6028 34.4064 43.7463 34.5088 43.9045 34.5841C44.0928 34.6737 44.2977 34.7232 44.5063 34.7292C44.5203 34.7292 44.5342 34.7282 44.548 34.7266C44.6008 34.7207 44.6495 34.7533 44.6595 34.8055L45.9107 41.3258C45.9253 41.4018 45.8517 41.4649 45.7788 41.4388L38.3489 38.7766C38.2768 38.7507 38.2593 38.6568 38.3173 38.6067L43.3367 34.2738ZM45.436 34.3074C45.4704 34.2728 45.524 34.2646 45.5654 34.2904L52.2188 38.4259C52.2415 38.44 52.2575 38.4625 52.2635 38.4884L53.5464 44.0591C53.5642 44.1362 53.4897 44.2024 53.4152 44.1757L46.1456 41.5693C46.1122 41.5573 46.0876 41.5286 46.0811 41.4937L44.8168 34.7745C44.8073 34.724 44.8378 34.6748 44.8863 34.6574C45.0932 34.5831 45.281 34.4635 45.436 34.3074ZM30.4652 36.5056C30.4502 36.4295 30.5237 36.3661 30.5967 36.392L37.6172 38.8821C37.6894 38.9077 37.7072 39.0018 37.6492 39.052L32.0698 43.8769C32.0118 43.9271 31.9211 43.8959 31.9063 43.8206L30.4652 36.5056ZM29.842 36.6366C29.8995 36.5839 29.9924 36.6143 30.0076 36.6908L31.5199 44.2845C31.5269 44.3198 31.5144 44.3562 31.4872 44.3797L26.6439 48.5636C26.604 48.5981 26.5444 48.5954 26.5051 48.5602C26.3795 48.4476 26.2354 48.3574 26.0788 48.2936C25.9248 48.2309 25.7615 48.1948 25.5959 48.1868C25.5399 48.1841 25.4938 48.1393 25.4938 48.0833V40.6628C25.4938 40.6347 25.5055 40.6079 25.5262 40.589L29.842 36.6366ZM52.7672 38.9685C52.7477 38.882 52.8422 38.8147 52.9175 38.8616L62.1088 44.5765C62.1514 44.6031 62.1675 44.6571 62.1525 44.7051C62.1475 44.7212 62.1428 44.7373 62.1383 44.7535C62.1257 44.7989 62.0832 44.8288 62.0362 44.8254L54.0302 44.2429C53.9863 44.2397 53.9496 44.2081 53.9399 44.1651L52.7672 38.9685ZM37.8414 39.0171C37.8686 38.9936 37.9063 38.9866 37.9402 38.9986L45.9606 41.8433C45.994 41.8552 46.0187 41.8839 46.0254 41.9188L47.4766 49.493C47.4833 49.5283 47.4707 49.5644 47.4435 49.5877L41.1206 55.0126C41.0937 55.0358 41.0564 55.0429 41.0229 55.0313L33.6648 52.4896C33.6311 52.478 33.6062 52.4493 33.5993 52.4144L31.9696 44.1466C31.9626 44.1114 31.9752 44.0751 32.0024 44.0516L37.8414 39.0171ZM25.2033 40.8825C25.2675 40.8237 25.3708 40.8693 25.3708 40.9562V48.1069C25.3708 48.1585 25.3315 48.2013 25.2806 48.2092C24.9477 48.2613 24.641 48.4241 24.4111 48.6728C24.1604 48.9437 24.0185 49.2976 24.0125 49.6667C24.0174 50.058 24.175 50.4319 24.4517 50.7087C24.7285 50.9854 25.1024 51.143 25.4938 51.1479C25.5233 51.1479 25.551 51.1418 25.5784 51.1346C25.6299 51.1209 25.6786 51.1536 25.6885 51.2059L26.4788 55.3747C26.4946 55.4581 26.4058 55.5221 26.3317 55.4805L15.8602 49.6114C15.8008 49.578 15.7914 49.4964 15.8416 49.4504L25.2033 40.8825ZM46.1946 42.0834C46.1804 42.0076 46.2537 41.9449 46.3263 41.9707L53.2312 44.4235C53.3036 44.4492 53.3211 44.5436 53.2628 44.5936L47.7127 49.3559C47.6543 49.4061 47.5635 49.3742 47.5493 49.2985L46.1946 42.0834ZM31.4201 44.5537C31.4781 44.5037 31.5686 44.5348 31.5835 44.6099L33.0826 52.129C33.0977 52.2047 33.0249 52.2683 32.9519 52.2431L26.938 50.1666C26.8827 50.1476 26.8558 50.0855 26.8763 50.0307C26.9197 49.9154 26.9523 49.7962 26.9736 49.6746C26.9746 49.6693 26.975 49.6639 26.975 49.6585C26.9759 49.339 26.8729 49.0286 26.683 48.7736C26.6501 48.7294 26.6545 48.6667 26.6962 48.6308L31.4201 44.5537ZM54.006 44.8386C54.0073 44.7813 54.0562 44.7368 54.1133 44.741L61.9613 45.3167C62.0101 45.3203 62.0487 45.3587 62.0562 45.407C62.0839 45.5877 62.1469 45.7611 62.2415 45.9175C62.2676 45.9607 62.2613 46.0169 62.2237 46.0506L53.9863 53.4295C53.9212 53.4879 53.8177 53.4403 53.8196 53.3528L54.006 44.8386ZM53.4611 45.1672C53.5267 45.1107 53.6282 45.1587 53.6263 45.2452L53.4343 53.8796C53.4337 53.9072 53.4216 53.9334 53.4011 53.9518L50.2379 56.7857C50.1998 56.8199 50.1422 56.8194 50.1023 56.7874C49.8453 56.5815 49.5268 56.4653 49.1958 56.4583C49.1264 56.4583 49.0635 56.474 49.0002 56.4895C48.9472 56.5024 48.8961 56.4674 48.886 56.4138L47.7148 50.1754C47.7082 50.1403 47.7208 50.1044 47.7479 50.0811L53.4611 45.1672ZM62.4657 46.368C62.5041 46.3341 62.5623 46.3347 62.6063 46.3612C62.619 46.3688 62.6319 46.3761 62.6448 46.3835C62.6871 46.4075 62.7018 46.4593 62.6815 46.5035L53.7368 65.9395C53.6914 66.0381 53.5436 66.004 53.546 65.8955L53.8053 54.0459C53.8059 54.018 53.8182 53.9916 53.8391 53.9731L62.4657 46.368ZM47.4816 50.3084C47.5399 50.2583 47.6305 50.2899 47.645 50.3654L48.8064 56.4278C48.8167 56.4816 48.7816 56.5334 48.7288 56.5481C48.5385 56.6012 48.3616 56.6952 48.2107 56.8239C48.0595 56.9529 47.9386 57.1132 47.8562 57.2932C47.8336 57.3426 47.7778 57.3692 47.7266 57.3514L41.8749 55.3277C41.802 55.3025 41.7839 55.2077 41.8424 55.1574L47.4816 50.3084ZM26.7209 50.3875C26.746 50.3441 26.7979 50.3226 26.8453 50.339L33.1042 52.5042C33.1377 52.5158 33.1626 52.5443 33.1695 52.5791L34.6368 59.9434C34.6534 60.0271 34.5643 60.0919 34.4898 60.0502L26.7238 55.6997C26.6981 55.6854 26.6801 55.6604 26.6745 55.6315L25.8118 51.1785C25.8017 51.1263 25.8343 51.0757 25.885 51.0596C26.0584 51.0044 26.2204 50.9179 26.3629 50.8039C26.5073 50.6884 26.6286 50.5471 26.7209 50.3875ZM16.347 50.6985C16.2853 50.6115 16.3846 50.5012 16.4776 50.5535L26.6115 56.2501C26.6372 56.2646 26.6553 56.2896 26.6608 56.3186L28.8767 67.9714C28.8855 68.0173 28.8609 68.0631 28.8217 68.0886C28.8143 68.0934 28.807 68.0983 28.7997 68.1033C28.7567 68.1326 28.6997 68.1215 28.6696 68.079L16.347 50.6985ZM33.6857 52.8644C33.6708 52.7887 33.7436 52.7253 33.8165 52.7505L40.7415 55.141C40.8145 55.1662 40.8326 55.2611 40.774 55.3114L35.2551 60.0488C35.197 60.0986 35.1066 60.0674 35.0918 59.9922L33.6857 52.8644ZM53.2539 54.486C53.3193 54.4285 53.4219 54.4762 53.4199 54.5633L53.151 66.6907C53.1495 66.7589 53.0817 66.8055 53.0175 66.7827L41.5408 62.6932C41.4605 62.6647 41.4505 62.5553 41.5242 62.5125L47.9188 58.8034C47.9644 58.7769 48.0225 58.7907 48.0545 58.8327C48.1794 58.9966 48.3369 59.1333 48.5174 59.234C48.7254 59.3499 48.9579 59.4146 49.1958 59.4229C49.5879 59.4175 49.9624 59.2592 50.2395 58.9817C50.5165 58.7043 50.6743 58.3296 50.6792 57.9375C50.6734 57.6444 50.5765 57.3613 50.403 57.1271C50.3705 57.0831 50.3746 57.021 50.4156 56.9849L53.2539 54.486ZM41.4981 55.4541C41.5251 55.4309 41.5623 55.4238 41.596 55.4354L47.6989 57.5437C47.747 57.5603 47.7747 57.6104 47.7622 57.6597C47.7394 57.7494 47.7167 57.8381 47.7167 57.9375C47.7167 58.1332 47.7592 58.3138 47.8275 58.4804C47.8472 58.5285 47.83 58.5846 47.785 58.6107L41.0817 62.4914C41.0563 62.5061 41.0257 62.5089 40.9981 62.4991L35.7185 60.6202C35.6462 60.5945 35.6287 60.5002 35.6869 60.4502L41.4981 55.4541ZM26.8557 56.5788C26.8395 56.4951 26.9286 56.4308 27.0029 56.4726L34.6103 60.7525C34.6602 60.7806 34.6763 60.8448 34.6457 60.8932L30.1396 68.0056C30.1123 68.0486 30.0571 68.0639 30.01 68.0444C29.745 67.9348 29.4533 67.9074 29.1728 67.9654C29.1153 67.9773 29.057 67.942 29.0459 67.8843L26.8557 56.5788ZM35.0719 61.0527C35.0969 61.0133 35.1458 60.9964 35.1897 61.012L40.229 62.7944C40.3094 62.8228 40.3196 62.9325 40.2457 62.9752L30.7078 68.4941C30.6632 68.5199 30.6068 68.5072 30.5776 68.4647C30.5593 68.438 30.5405 68.4115 30.5199 68.3863C30.4892 68.3486 30.4815 68.295 30.5075 68.254L35.0719 61.0527ZM40.6934 62.9961C40.7187 62.9814 40.7493 62.9785 40.7769 62.9883L51.8312 66.8942C51.9323 66.9299 51.914 67.0781 51.8072 67.088L30.943 69.0315C30.8933 69.0361 30.8481 69.0033 30.8359 68.9548C30.826 68.9156 30.8153 68.8769 30.8024 68.839C30.7858 68.79 30.803 68.7343 30.8478 68.7083L40.6934 62.9961Z" fill="url(#paint5_linear_74_6125)" fill-opacity="0.2"/>
</g>
<defs>
<filter id="filter0_b_74_6125" x="-5" y="3" width="90" height="89.7908" filterUnits="userSpaceOnUse" color-interpolation-filters="sRGB">
<feFlood flood-opacity="0" result="BackgroundImageFix"/>
<feGaussianBlur in="BackgroundImageFix" stdDeviation="2.5"/>
<feComposite in2="SourceAlpha" operator="in" result="effect1_backgroundBlur_74_6125"/>
<feBlend mode="normal" in="SourceGraphic" in2="effect1_backgroundBlur_74_6125" result="shape"/>
</filter>
<filter id="filter1_f_74_6125" x="1.40484" y="0.160212" width="76.6784" height="58.6437" filterUnits="userSpaceOnUse" color-interpolation-filters="sRGB">
<feFlood flood-opacity="0" result="BackgroundImageFix"/>
<feBlend mode="normal" in="SourceGraphic" in2="BackgroundImageFix" result="shape"/>
<feGaussianBlur stdDeviation="6.47727" result="effect1_foregroundBlur_74_6125"/>
</filter>
<radialGradient id="paint0_radial_74_6125" cx="0" cy="0" r="1" gradientUnits="userSpaceOnUse" gradientTransform="translate(6.69204 8) rotate(47.9449) scale(119.431 86.7751)">
<stop stop-color="white" stop-opacity="0.36"/>
<stop offset="1" stop-color="white" stop-opacity="0"/>
</radialGradient>
<radialGradient id="paint1_radial_74_6125" cx="0" cy="0" r="1" gradientUnits="userSpaceOnUse" gradientTransform="translate(-42.5965 16.1628) rotate(35.0407) scale(92.1512 54.3882)">
<stop stop-color="white"/>
<stop offset="1" stop-color="white" stop-opacity="0.06"/>
</radialGradient>
<radialGradient id="paint2_radial_74_6125" cx="0" cy="0" r="1" gradientUnits="userSpaceOnUse" gradientTransform="translate(103.421 61.4008) rotate(161.385) scale(66.8428 45.1784)">
<stop stop-color="#8470FF"/>
<stop offset="1" stop-color="#865CFF" stop-opacity="0"/>
</radialGradient>
<radialGradient id="paint3_radial_74_6125" cx="0" cy="0" r="1" gradientUnits="userSpaceOnUse" gradientTransform="translate(40.871 -10.2359) rotate(47.2149) scale(44.643 32.0879)">
<stop/>
<stop offset="1" stop-color="white" stop-opacity="0"/>
</radialGradient>
<radialGradient id="paint4_radial_74_6125" cx="0" cy="0" r="1" gradientUnits="userSpaceOnUse" gradientTransform="translate(39.744 13.1147) rotate(90) scale(24.2566 37.625)">
<stop stop-color="white"/>
<stop offset="1" stop-color="white" stop-opacity="0"/>
</radialGradient>
<linearGradient id="paint5_linear_74_6125" x1="69.5796" y1="25.0979" x2="9.29145" y2="34.5717" gradientUnits="userSpaceOnUse">
<stop stop-color="#19FB9B"/>
<stop offset="1" stop-color="#8C01FA"/>
</linearGradient>
<clipPath id="clip0_74_6125">
<rect width="50" height="50" fill="white" transform="translate(15 23)"/>
</clipPath>
</defs>
</svg>
