<svg width="42" height="56" viewBox="0 0 42 56" fill="none" xmlns="http://www.w3.org/2000/svg">
<path d="M28.4708 0.183472C22.0714 13.221 18.5357 19.7225 14.9708 19.7225C11.4058 19.7225 7.87013 13.221 1.5 0.183472C7.87013 13.221 10.9091 20.1009 9.12662 23.7129C7.34416 27.3249 0.76948 27.7033 -12 27.7033C1.23701 27.7033 7.81169 28.0817 9.30195 32.072C10.7045 35.7872 7.66558 42.6328 1.5 55.2231C7.89935 42.1856 11.4351 35.684 15 35.684C18.5649 35.684 22.1006 42.1856 28.5 55.2231C21.7208 41.36 18.7403 34.48 21.2532 31.04C23.474 28.0129 30.0195 27.7033 42 27.7033C28.5 27.7033 21.9253 27.2905 20.6104 23.0593C19.4123 19.2753 22.4513 12.4642 28.4708 0.183472Z" fill="#A435FB"/>
</svg>
