<svg width="23" height="24" viewBox="0 0 23 24" fill="none" xmlns="http://www.w3.org/2000/svg">
<path fill-rule="evenodd" clip-rule="evenodd" d="M18.8163 4.84654C16.9293 2.95743 14.42 1.91662 11.7464 1.91553C6.2377 1.91553 1.75418 6.39869 1.75203 11.9091C1.75129 13.6006 2.1756 15.2531 2.98372 16.7238C3.04802 16.8408 3.06628 16.978 3.03102 17.1068L1.89694 21.2491C1.79529 21.6204 2.13372 21.9624 2.50606 21.8648L6.77436 20.7451C6.89768 20.7128 7.02846 20.7293 7.14159 20.7881C8.55706 21.5237 10.1363 21.9107 11.7424 21.9112H11.7465C11.7462 21.9112 11.7468 21.9112 11.7465 21.9112C17.2546 21.9112 21.7385 17.4276 21.7408 11.9171C21.7418 9.24658 20.7032 6.73558 18.8163 4.84654ZM11.7465 20.2234H11.7431C10.2526 20.2228 8.79057 19.8223 7.51515 19.0655L7.39166 18.9922C7.27662 18.9239 7.13901 18.9046 7.00961 18.9385L4.90569 19.4904C4.53335 19.588 4.19493 19.246 4.29657 18.8747L4.84903 16.8568C4.88602 16.7217 4.86465 16.5773 4.79013 16.4587L4.70954 16.3305C3.87803 15.0079 3.43886 13.4793 3.43951 11.9097C3.4413 7.32963 7.16784 3.6035 11.7498 3.6035C13.9686 3.60419 16.0543 4.46941 17.6227 6.03957C19.191 7.60972 20.0542 9.69682 20.0533 11.9164C20.0515 16.4968 16.325 20.2234 11.7465 20.2234Z" fill="#14F195"/>
<path fill-rule="evenodd" clip-rule="evenodd" d="M16.3031 14.0018C16.0534 13.8769 14.8256 13.2728 14.5967 13.1894C14.3678 13.1061 14.2013 13.0644 14.0348 13.3144C13.8684 13.5643 13.3898 14.1269 13.2441 14.2936C13.0985 14.4602 12.9527 14.4811 12.7031 14.356C12.4534 14.231 11.6487 13.9674 10.6949 13.1166C9.95247 12.4544 9.45131 11.6367 9.30559 11.3866C9.15994 11.1366 9.29009 11.0015 9.41512 10.877C9.52746 10.765 9.66487 10.5853 9.78974 10.4395C9.91457 10.2937 9.9562 10.1894 10.0394 10.0229C10.1227 9.85618 10.0811 9.71034 10.0186 9.58538C9.9562 9.46039 9.45679 8.23122 9.24871 7.73112C9.04594 7.24425 8.84009 7.31021 8.68678 7.30246C8.54134 7.2952 8.37464 7.2937 8.20819 7.2937C8.04173 7.2937 7.77113 7.35622 7.54228 7.60617C7.31339 7.8562 6.66821 8.4604 6.66821 9.68945C6.66821 10.9187 7.56305 12.1061 7.68792 12.2727C7.81276 12.4395 9.44884 14.9618 11.9539 16.0435C12.5497 16.3008 13.0149 16.4544 13.3775 16.5695C13.9758 16.7596 14.5202 16.7327 14.9505 16.6684C15.4303 16.5967 16.4279 16.0644 16.636 15.4811C16.8441 14.8977 16.8441 14.3976 16.7817 14.2935C16.7193 14.1894 16.5528 14.1269 16.3031 14.0018Z" fill="#14F195"/>
</svg>
