<svg width="164" height="34" viewBox="0 0 164 34" fill="none" xmlns="http://www.w3.org/2000/svg">
<path d="M72.218 21.72L71.69 21.888V8.4H73.61V24H71.69L61.562 10.704L62.09 10.536V24H60.17V8.4H62.09L72.218 21.72ZM85.5794 20.136H87.3794C87.2514 20.92 86.9634 21.624 86.5154 22.248C86.0834 22.856 85.5074 23.344 84.7874 23.712C84.0834 24.064 83.2674 24.24 82.3394 24.24C81.2194 24.24 80.2114 23.976 79.3154 23.448C78.4194 22.904 77.7074 22.168 77.1794 21.24C76.6674 20.296 76.4114 19.224 76.4114 18.024C76.4114 16.824 76.6594 15.752 77.1554 14.808C77.6674 13.864 78.3634 13.12 79.2434 12.576C80.1234 12.032 81.1154 11.76 82.2194 11.76C83.3874 11.76 84.3714 12.024 85.1714 12.552C85.9874 13.064 86.5874 13.824 86.9714 14.832C87.3714 15.824 87.5314 17.048 87.4514 18.504H78.3314C78.4114 19.288 78.6274 19.976 78.9794 20.568C79.3314 21.16 79.7954 21.624 80.3714 21.96C80.9474 22.28 81.6034 22.44 82.3394 22.44C83.1554 22.44 83.8434 22.232 84.4034 21.816C84.9794 21.384 85.3714 20.824 85.5794 20.136ZM82.2914 13.56C81.2994 13.56 80.4674 13.848 79.7954 14.424C79.1234 15 78.6754 15.784 78.4514 16.776H85.4834C85.4194 15.72 85.0754 14.92 84.4514 14.376C83.8434 13.832 83.1234 13.56 82.2914 13.56ZM99.4156 12L94.7596 18.528L90.9436 24H88.6156L93.5836 17.112L97.0876 12H99.4156ZM88.6156 12H91.0156L94.7356 17.16L99.6556 24H97.3276L93.4396 18.528L88.6156 12ZM111.986 24H110.066V12H111.986V24ZM110.186 18.408L110.21 19.08C110.194 19.272 110.146 19.568 110.066 19.968C110.002 20.368 109.882 20.816 109.706 21.312C109.546 21.792 109.306 22.256 108.986 22.704C108.682 23.152 108.282 23.52 107.786 23.808C107.306 24.096 106.706 24.24 105.986 24.24C105.522 24.24 105.042 24.168 104.546 24.024C104.066 23.896 103.618 23.68 103.202 23.376C102.786 23.056 102.45 22.616 102.194 22.056C101.938 21.496 101.81 20.8 101.81 19.968V12H103.73V19.488C103.73 20.208 103.842 20.776 104.066 21.192C104.306 21.592 104.626 21.88 105.026 22.056C105.426 22.232 105.874 22.32 106.37 22.32C107.186 22.32 107.866 22.112 108.41 21.696C108.954 21.28 109.37 20.768 109.658 20.16C109.946 19.552 110.122 18.968 110.186 18.408ZM115.099 12H117.019V24H115.099V12ZM120.859 13.8C120.043 13.8 119.355 14.008 118.795 14.424C118.251 14.824 117.819 15.32 117.499 15.912C117.195 16.488 116.995 17.048 116.899 17.592L116.875 16.2C116.875 16.056 116.907 15.816 116.971 15.48C117.035 15.144 117.155 14.768 117.331 14.352C117.507 13.92 117.739 13.512 118.027 13.128C118.331 12.728 118.715 12.4 119.179 12.144C119.643 11.888 120.203 11.76 120.859 11.76V13.8ZM128.229 24.24C127.205 24.24 126.245 23.992 125.349 23.496C124.453 23 123.725 22.288 123.165 21.36C122.621 20.416 122.349 19.304 122.349 18.024C122.349 16.744 122.621 15.64 123.165 14.712C123.725 13.768 124.453 13.04 125.349 12.528C126.245 12.016 127.205 11.76 128.229 11.76C129.253 11.76 130.205 12.016 131.085 12.528C131.981 13.04 132.701 13.768 133.245 14.712C133.789 15.64 134.061 16.744 134.061 18.024C134.061 19.304 133.789 20.416 133.245 21.36C132.701 22.288 131.981 23 131.085 23.496C130.205 23.992 129.253 24.24 128.229 24.24ZM128.229 22.44C128.901 22.44 129.533 22.272 130.125 21.936C130.717 21.6 131.197 21.104 131.565 20.448C131.949 19.776 132.141 18.968 132.141 18.024C132.141 17.08 131.949 16.28 131.565 15.624C131.197 14.952 130.717 14.44 130.125 14.088C129.533 13.736 128.901 13.56 128.229 13.56C127.557 13.56 126.917 13.736 126.309 14.088C125.717 14.424 125.229 14.928 124.845 15.6C124.461 16.256 124.269 17.064 124.269 18.024C124.269 18.968 124.453 19.776 124.821 20.448C125.205 21.104 125.701 21.6 126.309 21.936C126.917 22.272 127.557 22.44 128.229 22.44ZM140.778 22.344H140.202L143.874 12H145.962L141.402 24H139.602L135.066 12H137.154L140.778 22.344ZM152.19 24.24C151.246 24.24 150.374 23.976 149.574 23.448C148.79 22.904 148.158 22.168 147.678 21.24C147.214 20.296 146.982 19.224 146.982 18.024C146.982 16.824 147.222 15.752 147.702 14.808C148.182 13.864 148.83 13.12 149.646 12.576C150.478 12.032 151.406 11.76 152.43 11.76C153.55 11.76 154.398 12.048 154.974 12.624C155.566 13.184 155.966 13.936 156.174 14.88C156.398 15.824 156.51 16.872 156.51 18.024C156.51 18.632 156.446 19.296 156.318 20.016C156.19 20.72 155.966 21.4 155.646 22.056C155.342 22.696 154.91 23.224 154.35 23.64C153.79 24.04 153.07 24.24 152.19 24.24ZM152.67 22.416C153.486 22.416 154.158 22.216 154.686 21.816C155.23 21.416 155.63 20.888 155.886 20.232C156.142 19.56 156.27 18.824 156.27 18.024C156.27 17.144 156.134 16.376 155.862 15.72C155.606 15.048 155.206 14.528 154.662 14.16C154.134 13.776 153.47 13.584 152.67 13.584C151.47 13.584 150.542 14.008 149.886 14.856C149.23 15.688 148.902 16.744 148.902 18.024C148.902 18.872 149.062 19.632 149.382 20.304C149.718 20.96 150.166 21.48 150.726 21.864C151.302 22.232 151.95 22.416 152.67 22.416ZM156.27 12H158.19V24H156.438C156.438 24 156.422 23.856 156.39 23.568C156.374 23.28 156.35 22.944 156.318 22.56C156.286 22.176 156.27 21.856 156.27 21.6V12Z" fill="white"/>
<path d="M10.993 11.1177H0.0521164L22.1253 33.3381L32.0796 32.8522L10.993 11.1177Z" fill="url(#paint0_linear_98_9596)"/>
<path d="M10.9929 0.132568L0.00789452 11.206H10.9929L22.1694 0.132568H10.9929Z" fill="url(#paint1_linear_98_9596)"/>
<path d="M55.1982 33.5L22.1105 0L16.6475 5.61033L44.596 33.5H55.1982Z" fill="url(#paint2_linear_98_9596)"/>
<path d="M44.6843 15.9917L28.6338 0.117855H44.6843V15.9917Z" fill="url(#paint3_linear_98_9596)"/>
<defs>
<linearGradient id="paint0_linear_98_9596" x1="0.0374009" y1="11.1029" x2="30.8132" y2="31.0115" gradientUnits="userSpaceOnUse">
<stop stop-color="#01EDB8"/>
<stop offset="1" stop-color="#028699"/>
</linearGradient>
<linearGradient id="paint1_linear_98_9596" x1="22.1547" y1="0.117843" x2="-8.23829" y2="15.3143" gradientUnits="userSpaceOnUse">
<stop stop-color="#01AEDA"/>
<stop offset="1" stop-color="#015BF8"/>
</linearGradient>
<linearGradient id="paint2_linear_98_9596" x1="21.8013" y1="-9.13905e-06" x2="33.287" y2="22.1763" gradientUnits="userSpaceOnUse">
<stop stop-color="#547CCB"/>
<stop offset="1" stop-color="#811AF1"/>
</linearGradient>
<linearGradient id="paint3_linear_98_9596" x1="28.6264" y1="16.0022" x2="46.7678" y2="7.76958" gradientUnits="userSpaceOnUse">
<stop stop-color="#01EDB8"/>
<stop offset="1" stop-color="#028699"/>
</linearGradient>
</defs>
</svg>
