<svg width="853" height="877" viewBox="0 0 853 877" fill="none" xmlns="http://www.w3.org/2000/svg">
<g opacity="0.75" filter="url(#filter0_f_74_6655)">
<path d="M600.328 547.241L530.74 621.856C529.235 623.476 527.412 624.77 525.385 625.655C523.358 626.54 521.171 626.998 518.959 627H189.085C187.512 626.999 185.973 626.54 184.657 625.677C183.341 624.815 182.305 623.588 181.675 622.146C181.046 620.704 180.851 619.11 181.114 617.559C181.377 616.008 182.086 614.567 183.155 613.412L252.664 538.798C254.17 537.177 255.992 535.884 258.019 534.999C260.046 534.114 262.234 533.656 264.446 533.654H594.319C595.906 533.621 597.469 534.059 598.808 534.911C600.147 535.764 601.207 536.994 601.847 538.447C602.492 539.899 602.688 541.509 602.417 543.074C602.146 544.639 601.419 546.089 600.328 547.241ZM530.74 396.952C529.229 395.339 527.405 394.051 525.38 393.166C523.354 392.282 521.169 391.82 518.959 391.808H189.085C187.512 391.809 185.973 392.269 184.657 393.131C183.341 393.993 182.305 395.22 181.675 396.662C181.046 398.104 180.851 399.698 181.114 401.249C181.377 402.801 182.086 404.242 183.155 405.396L252.664 480.05C254.175 481.663 255.999 482.951 258.025 483.836C260.05 484.72 262.235 485.182 264.446 485.194H594.319C595.89 485.185 597.422 484.72 598.733 483.855C600.045 482.99 601.074 481.763 601.698 480.322C602.323 478.882 602.515 477.29 602.248 475.743C601.985 474.195 601.278 472.758 600.21 471.606L530.74 396.952ZM189.085 343.348H518.959C521.171 343.346 523.358 342.888 525.385 342.003C527.412 341.118 529.235 339.824 530.74 338.203L600.328 263.589C601.419 262.437 602.146 260.987 602.417 259.422C602.688 257.857 602.492 256.247 601.847 254.795C601.207 253.342 600.147 252.112 598.808 251.259C597.469 250.406 595.906 249.969 594.319 250.002H264.446C262.234 250.004 260.046 250.462 258.019 251.347C255.992 252.232 254.17 253.525 252.664 255.146L183.155 329.76C182.086 330.914 181.377 332.356 181.114 333.907C180.851 335.458 181.046 337.052 181.675 338.494C182.305 339.936 183.341 341.163 184.657 342.025C185.973 342.888 187.512 343.347 189.085 343.348Z" fill="url(#paint0_linear_74_6655)"/>
</g>
<defs>
<filter id="filter0_f_74_6655" x="-69" y="0" width="921.535" height="877" filterUnits="userSpaceOnUse" color-interpolation-filters="sRGB">
<feFlood flood-opacity="0" result="BackgroundImageFix"/>
<feBlend mode="normal" in="SourceGraphic" in2="BackgroundImageFix" result="shape"/>
<feGaussianBlur stdDeviation="125" result="effect1_foregroundBlur_74_6655"/>
</filter>
<linearGradient id="paint0_linear_74_6655" x1="181" y1="438.5" x2="531.367" y2="277.744" gradientUnits="userSpaceOnUse">
<stop offset="0.08" stop-color="#9945FF"/>
<stop offset="0.3" stop-color="#8752F3"/>
<stop offset="0.5" stop-color="#5497D5"/>
<stop offset="0.6" stop-color="#43B4CA"/>
<stop offset="0.72" stop-color="#28E0B9"/>
<stop offset="1" stop-color="#19FB9B"/>
</linearGradient>
</defs>
</svg>
