<svg width="24" height="24" viewBox="0 0 24 24" fill="none" xmlns="http://www.w3.org/2000/svg">
<g id="instagram">
<path id="Vector" d="M16.9995 2H6.99951C4.23809 2 1.99951 4.23858 1.99951 7V17C1.99951 19.7614 4.23809 22 6.99951 22H16.9995C19.7609 22 21.9995 19.7614 21.9995 17V7C21.9995 4.23858 19.7609 2 16.9995 2Z" stroke="white" stroke-width="2" stroke-linecap="round" stroke-linejoin="round"/>
<path id="Vector_2" d="M15.9992 11.3701C16.1226 12.2023 15.9805 13.0523 15.593 13.7991C15.2055 14.5459 14.5924 15.1515 13.8408 15.5297C13.0893 15.908 12.2377 16.0397 11.407 15.906C10.5763 15.7723 9.80898 15.3801 9.21406 14.7852C8.61914 14.1903 8.22695 13.4229 8.09329 12.5923C7.95962 11.7616 8.09128 10.91 8.46955 10.1584C8.84781 9.40691 9.4534 8.7938 10.2002 8.4063C10.947 8.0188 11.797 7.87665 12.6292 8.00006C13.4781 8.12594 14.2641 8.52152 14.8709 9.12836C15.4778 9.73521 15.8733 10.5211 15.9992 11.3701Z" stroke="white" stroke-width="2" stroke-linecap="round" stroke-linejoin="round"/>
<path id="Vector_3" d="M17.4995 6.5H17.5095" stroke="white" stroke-width="2" stroke-linecap="round" stroke-linejoin="round"/>
</g>
</svg>
