<svg width="24" height="24" viewBox="0 0 24 24" fill="none" xmlns="http://www.w3.org/2000/svg">
<g id="linkedin">
<path id="Vector" d="M15.9995 8C17.5908 8 19.1169 8.63214 20.2422 9.75736C21.3674 10.8826 21.9995 12.4087 21.9995 14V21H17.9995V14C17.9995 13.4696 17.7888 12.9609 17.4137 12.5858C17.0387 12.2107 16.5299 12 15.9995 12C15.4691 12 14.9604 12.2107 14.5853 12.5858C14.2102 12.9609 13.9995 13.4696 13.9995 14V21H9.99951V14C9.99951 12.4087 10.6317 10.8826 11.7569 9.75736C12.8821 8.63214 14.4082 8 15.9995 8Z" stroke="white" stroke-width="2" stroke-linecap="round" stroke-linejoin="round"/>
<path id="Vector_2" d="M5.99951 9H1.99951V21H5.99951V9Z" stroke="white" stroke-width="2" stroke-linecap="round" stroke-linejoin="round"/>
<path id="Vector_3" d="M3.99951 6C5.10408 6 5.99951 5.10457 5.99951 4C5.99951 2.89543 5.10408 2 3.99951 2C2.89494 2 1.99951 2.89543 1.99951 4C1.99951 5.10457 2.89494 6 3.99951 6Z" stroke="white" stroke-width="2" stroke-linecap="round" stroke-linejoin="round"/>
</g>
</svg>
